<svg width="21" height="21" viewBox="0 0 21 21" fill="none" xmlns="http://www.w3.org/2000/svg">
<path d="M15.065 2.89717C17.005 2.89717 18.565 4.38591 18.565 6.21602C18.565 8.00819 17.065 9.46849 15.195 9.53486C15.1086 9.52538 15.0214 9.52538 14.935 9.53486M16.995 18.069C17.715 17.9268 18.395 17.6518 18.955 17.2441C20.515 16.1346 20.515 14.3045 18.955 13.1951C18.405 12.7968 17.735 12.5313 17.025 12.3796M7.815 9.41159C7.715 9.40211 7.595 9.40211 7.485 9.41159C6.3372 9.37464 5.24964 8.91551 4.45263 8.13143C3.65562 7.34735 3.21174 6.29989 3.215 5.21088C3.215 2.88769 5.195 1.00068 7.655 1.00068C8.83124 0.980566 9.96772 1.40434 10.8144 2.17879C11.6612 2.95324 12.1488 4.01492 12.17 5.13028C12.1912 6.24564 11.7443 7.3233 10.9276 8.1262C10.1109 8.92911 8.99124 9.39147 7.815 9.41159ZM2.815 12.9106C0.395 14.4468 0.395 16.9501 2.815 18.4768C5.565 20.2216 10.075 20.2216 12.825 18.4768C15.245 16.9406 15.245 14.4373 12.825 12.9106C10.085 11.1753 5.575 11.1753 2.815 12.9106Z" stroke="black" stroke-width="1.5" stroke-linecap="round" stroke-linejoin="round"/>
</svg>
