<svg width="22" height="21" viewBox="0 0 22 21" fill="none" xmlns="http://www.w3.org/2000/svg">
<path d="M8.02 1.78001L2.63 5.76263C1.73 6.4264 1 7.83928 1 8.91079V15.9373C1 18.1372 2.89 19.9388 5.21 19.9388H16.79C19.11 19.9388 21 18.1372 21 15.9467V9.04354C21 7.89617 20.19 6.4264 19.2 5.77211L13.02 1.66622C11.62 0.736943 9.37 0.784355 8.02 1.78001Z" stroke="black" stroke-width="1.5" stroke-linecap="round" stroke-linejoin="round"/>
<path d="M11 7.62109V16.1553M6.5 11.8882H15.5M9.5 16.1553H12.5C14.15 16.1553 15.5 14.8751 15.5 13.3105V10.4658C15.5 8.90122 14.15 7.62109 12.5 7.62109H9.5C7.85 7.62109 6.5 8.90122 6.5 10.4658V13.3105C6.5 14.8751 7.85 16.1553 9.5 16.1553Z" stroke="black" stroke-width="1.5" stroke-linecap="round" stroke-linejoin="round"/>
</svg>
