<svg width="22" height="21" viewBox="0 0 22 21" fill="none" xmlns="http://www.w3.org/2000/svg">
<path d="M7.67188 12.6918C7.67188 13.9151 8.66188 14.9012 9.89188 14.9012H12.4019C13.4719 14.9012 14.3419 14.0383 14.3419 12.9763C14.3419 11.8194 13.8119 11.4117 13.0219 11.1462L8.99187 9.81865C8.20187 9.55314 7.67188 9.1454 7.67188 7.98854C7.67188 6.92651 8.54188 6.06361 9.61188 6.06361H12.1219C13.3519 6.06361 14.3419 7.04979 14.3419 8.27302M10.9999 4.79297V16.1719" stroke="black" stroke-width="1.5" stroke-linecap="round" stroke-linejoin="round"/>
<path d="M14 19.9648H8C3 19.9648 1 18.0684 1 13.3271V7.6377C1 2.89648 3 1 8 1H14C19 1 21 2.89648 21 7.6377V13.3271C21 18.0684 19 19.9648 14 19.9648Z" stroke="black" stroke-width="1.5" stroke-linecap="round" stroke-linejoin="round"/>
</svg>
