<svg width="22" height="21" viewBox="0 0 22 21" fill="none" xmlns="http://www.w3.org/2000/svg">
<path d="M8 19.9648H14C19 19.9648 21 18.0684 21 13.3271V7.6377C21 2.89648 19 1 14 1H8C3 1 1 2.89648 1 7.6377V13.3271C1 18.0684 3 19.9648 8 19.9648Z" stroke="black" stroke-width="1.5" stroke-linecap="round" stroke-linejoin="round"/>
<path d="M10.38 6.50391V15.5691M16.76 13.3028V6.01083C16.76 5.28068 16.14 4.74967 15.38 4.80656H15.34C14 4.91087 11.97 5.56516 10.83 6.23841L10.72 6.30478C10.54 6.40909 10.23 6.40909 10.04 6.30478L9.88 6.20996C8.75 5.53671 6.72 4.90139 5.38 4.79708C4.62 4.74018 4 5.28068 4 6.00135V13.3028C4 13.8812 4.5 14.4312 5.11 14.4976L5.29 14.526C6.67 14.6967 8.81 15.37 10.03 16.0053L10.06 16.0148C10.23 16.1096 10.51 16.1096 10.67 16.0148C11.89 15.37 14.04 14.7062 15.43 14.526L15.64 14.4976C16.26 14.4312 16.76 13.8907 16.76 13.3028Z" stroke="black" stroke-width="1.5" stroke-linecap="round" stroke-linejoin="round"/>
</svg>
