<svg width="22" height="21" viewBox="0 0 22 21" fill="none" xmlns="http://www.w3.org/2000/svg">
<path d="M8 19.9648H14C19 19.9648 21 18.0684 21 13.3271V7.6377C21 2.89648 19 1 14 1H8C3 1 1 2.89648 1 7.6377V13.3271C1 18.0684 3 19.9648 8 19.9648Z" stroke="black" stroke-width="1.5" stroke-linecap="round" stroke-linejoin="round"/>
<path d="M14.5701 16.6455V12.9474M14.5701 6.16743V4.31836M14.5701 6.16743C14.9115 6.16743 15.2496 6.2312 15.5651 6.3551C15.8805 6.479 16.1671 6.6606 16.4086 6.88954C16.65 7.11848 16.8415 7.39026 16.9722 7.68938C17.1028 7.9885 17.1701 8.3091 17.1701 8.63286C17.1701 8.95663 17.1028 9.27722 16.9722 9.57634C16.8415 9.87546 16.65 10.1472 16.4086 10.3762C16.1671 10.6051 15.8805 10.7867 15.5651 10.9106C15.2496 11.0345 14.9115 11.0983 14.5701 11.0983C13.8805 11.0983 13.2192 10.8385 12.7316 10.3762C12.244 9.91383 11.9701 9.28673 11.9701 8.63286C11.9701 7.97899 12.244 7.3519 12.7316 6.88954C13.2192 6.42718 13.8805 6.16743 14.5701 6.16743ZM7.43008 16.6455V14.7964M7.43008 14.7964C7.77152 14.7964 8.10961 14.7327 8.42506 14.6088C8.7405 14.4849 9.02712 14.3033 9.26856 14.0743C9.50999 13.8454 9.7015 13.5736 9.83216 13.2745C9.96283 12.9754 10.0301 12.6548 10.0301 12.331C10.0301 12.0072 9.96283 11.6866 9.83216 11.3875C9.7015 11.0884 9.50999 10.8166 9.26856 10.5877C9.02712 10.3587 8.7405 10.1771 8.42506 10.0532C8.10961 9.92935 7.77152 9.86558 7.43008 9.86558C6.74052 9.86558 6.07919 10.1253 5.5916 10.5877C5.10401 11.05 4.83008 11.6771 4.83008 12.331C4.83008 12.9849 5.10401 13.612 5.5916 14.0743C6.07919 14.5367 6.74052 14.7964 7.43008 14.7964ZM7.43008 8.0165V4.31836" stroke="black" stroke-width="1.5" stroke-miterlimit="10" stroke-linecap="round" stroke-linejoin="round"/>
</svg>
