<svg width="1180" height="302" viewBox="0 0 1180 302" fill="none" xmlns="http://www.w3.org/2000/svg">
<path d="M417.481 18.1982V17.1982H416.736L416.523 17.912L417.481 18.1982ZM495.781 18.1982L496.738 18.4893L497.131 17.1982H495.781V18.1982ZM398.581 337.698V338.698H399.322L399.538 337.989L398.581 337.698ZM306.331 337.698L305.375 337.989L305.59 338.698H306.331V337.698ZM248.281 146.898L249.238 146.607L248.281 143.463L247.325 146.607L248.281 146.898ZM190.231 337.698V338.698H190.972L191.188 337.989L190.231 337.698ZM97.9813 337.698L97.0246 337.989L97.2402 338.698H97.9813V337.698ZM0.78125 18.1982V17.1982H-0.568222L-0.175461 18.4893L0.78125 18.1982ZM79.0813 18.1982L80.0389 17.9101L79.8247 17.1982H79.0813V18.1982ZM144.331 235.098L143.374 235.386L144.335 238.581L145.289 235.384L144.331 235.098ZM209.131 18.1982V17.1982H208.386L208.173 17.912L209.131 18.1982ZM287.431 18.1982L288.389 17.9101L288.175 17.1982H287.431V18.1982ZM352.681 235.098L351.724 235.386L352.685 238.581L353.639 235.384L352.681 235.098ZM417.481 19.1982H495.781V17.1982H417.481V19.1982ZM494.825 17.9072L397.625 337.407L399.538 337.989L496.738 18.4893L494.825 17.9072ZM398.581 336.698H306.331V338.698H398.581V336.698ZM307.288 337.407L249.238 146.607L247.325 147.189L305.375 337.989L307.288 337.407ZM247.325 146.607L189.275 337.407L191.188 337.989L249.238 147.189L247.325 146.607ZM190.231 336.698H97.9813V338.698H190.231V336.698ZM98.938 337.407L1.73796 17.9072L-0.175461 18.4893L97.0246 337.989L98.938 337.407ZM0.78125 19.1982H79.0813V17.1982H0.78125V19.1982ZM78.1237 18.4863L143.374 235.386L145.289 234.81L80.0389 17.9101L78.1237 18.4863ZM145.289 235.384L210.089 18.4845L208.173 17.912L143.373 234.812L145.289 235.384ZM209.131 19.1982H287.431V17.1982H209.131V19.1982ZM286.474 18.4863L351.724 235.386L353.639 234.81L288.389 17.9101L286.474 18.4863ZM353.639 235.384L418.439 18.4845L416.523 17.912L351.723 234.812L353.639 235.384ZM592.32 341.198C518.613 341.198 469.57 288.536 469.57 223.848H467.57C467.57 289.66 517.528 343.198 592.32 343.198V341.198ZM469.57 223.848C469.57 159.16 518.613 106.498 592.32 106.498V104.498C517.528 104.498 467.57 158.036 467.57 223.848H469.57ZM592.32 106.498C666.018 106.498 714.17 159.151 714.17 223.848H716.17C716.17 158.046 667.123 104.498 592.32 104.498V106.498ZM714.17 223.848C714.17 288.546 666.018 341.198 592.32 341.198V343.198C667.123 343.198 716.17 289.651 716.17 223.848H714.17ZM592.32 271.198C607.207 271.198 619.064 265.694 627.195 256.987C635.316 248.29 639.67 236.451 639.67 223.848H637.67C637.67 235.996 633.475 247.331 625.733 255.622C618.001 263.902 606.684 269.198 592.32 269.198V271.198ZM639.67 223.848C639.67 211.246 635.316 199.406 627.195 190.71C619.064 182.002 607.207 176.498 592.32 176.498V178.498C606.684 178.498 618.001 183.794 625.733 192.074C633.475 200.365 637.67 211.701 637.67 223.848H639.67ZM592.32 176.498C562.48 176.498 544.07 198.585 544.07 223.848H546.07C546.07 199.612 563.66 178.498 592.32 178.498V176.498ZM544.07 223.848C544.07 249.112 562.48 271.198 592.32 271.198V269.198C563.66 269.198 546.07 248.085 546.07 223.848H544.07ZM1008.64 109.998L1009.34 110.718L1011.12 108.998H1008.64V109.998ZM906.044 208.998L905.35 208.279L904.695 208.91L905.262 209.622L906.044 208.998ZM1008.64 337.698V338.698H1010.72L1009.43 337.075L1008.64 337.698ZM913.694 337.698L912.914 338.323L913.214 338.698H913.694V337.698ZM852.044 260.748L852.825 260.123L852.138 259.265L851.348 260.03L852.044 260.748ZM823.244 288.648L822.548 287.93L822.244 288.225V288.648H823.244ZM823.244 337.698V338.698H824.244V337.698H823.244ZM746.744 337.698H745.744V338.698H746.744V337.698ZM746.744 0.198212V-0.801788H745.744V0.198212H746.744ZM823.244 0.198212H824.244V-0.801788H823.244V0.198212ZM823.244 186.048H822.244V188.404L823.939 186.768L823.244 186.048ZM901.994 109.998V108.998H901.59L901.299 109.279L901.994 109.998ZM1007.95 109.279L905.35 208.279L906.739 209.718L1009.34 110.718L1007.95 109.279ZM905.262 209.622L1007.86 338.322L1009.43 337.075L906.826 208.375L905.262 209.622ZM1008.64 336.698H913.694V338.698H1008.64V336.698ZM914.475 337.073L852.825 260.123L851.264 261.374L912.914 338.323L914.475 337.073ZM851.348 260.03L822.548 287.93L823.94 289.366L852.74 261.466L851.348 260.03ZM822.244 288.648V337.698H824.244V288.648H822.244ZM823.244 336.698H746.744V338.698H823.244V336.698ZM747.744 337.698V0.198212H745.744V337.698H747.744ZM746.744 1.19821H823.244V-0.801788H746.744V1.19821ZM822.244 0.198212V186.048H824.244V0.198212H822.244ZM823.939 186.768L902.689 110.718L901.299 109.279L822.549 185.329L823.939 186.768ZM901.994 110.998H1008.64V108.998H901.994V110.998ZM1179.11 114.948L1180.1 115.094L1180.17 114.597L1179.82 114.241L1179.11 114.948ZM1169.21 181.998L1168.73 182.876L1169.99 183.563L1170.2 182.144L1169.21 181.998ZM1108.01 337.698V338.698H1109.01V337.698H1108.01ZM1031.51 337.698H1030.51V338.698H1031.51V337.698ZM1031.51 109.998V108.998H1030.51V109.998H1031.51ZM1103.51 109.998L1104.5 109.845L1104.37 108.998H1103.51V109.998ZM1106.66 130.248L1105.67 130.402L1105.99 132.464L1107.4 130.922L1106.66 130.248ZM1153.01 106.498C1164.04 106.498 1173.22 110.472 1178.4 115.655L1179.82 114.241C1174.2 108.624 1164.48 104.498 1153.01 104.498V106.498ZM1178.12 114.802L1168.22 181.852L1170.2 182.144L1180.1 115.094L1178.12 114.802ZM1169.69 181.12C1167.09 179.702 1163.38 178.552 1159.51 177.756C1155.63 176.957 1151.51 176.498 1148.06 176.498V178.498C1151.36 178.498 1155.34 178.939 1159.11 179.715C1162.89 180.494 1166.38 181.594 1168.73 182.876L1169.69 181.12ZM1148.06 176.498C1136.25 176.498 1125.91 181.391 1118.58 193.402C1111.29 205.334 1107.01 224.228 1107.01 252.198H1109.01C1109.01 224.368 1113.28 205.913 1120.28 194.444C1127.24 183.055 1136.92 178.498 1148.06 178.498V176.498ZM1107.01 252.198V337.698H1109.01V252.198H1107.01ZM1108.01 336.698H1031.51V338.698H1108.01V336.698ZM1032.51 337.698V109.998H1030.51V337.698H1032.51ZM1031.51 110.998H1103.51V108.998H1031.51V110.998ZM1102.52 110.152L1105.67 130.402L1107.65 130.095L1104.5 109.845L1102.52 110.152ZM1107.4 130.922C1121.25 115.726 1136.76 106.498 1153.01 106.498V104.498C1135.96 104.498 1119.97 114.17 1105.92 129.574L1107.4 130.922Z" fill="url(#paint0_linear_437_1975)"/>
<defs>
<linearGradient id="paint0_linear_437_1975" x1="581" y1="-99.3018" x2="581" y2="416.698" gradientUnits="userSpaceOnUse">
<stop offset="0.364583" stop-color="#D6D6D6"/>
<stop offset="1" stop-color="#D5D5D5" stop-opacity="0"/>
</linearGradient>
</defs>
</svg>
